<svg fill="currentColor" stroke="currentColor" viewBox="0 0 24 24" fill="none" xmlns="http://www.w3.org/2000/svg">
<path d="M19.01 21.23V5.2C19.01 4.26 18.25 3.5 17.31 3.5H7.09001C6.15001 3.5 5.39001 4.26 5.39001 5.2V21.23" stroke-linecap="round" stroke-linejoin="round"/>
<path d="M7.91 6.35999H10.67" stroke-linecap="round" stroke-linejoin="round"/>
<path d="M13.73 6.35999H16.49" stroke-linecap="round" stroke-linejoin="round"/>
<path d="M7.91 8.70001H10.67" stroke-linecap="round" stroke-linejoin="round"/>
<path d="M13.73 8.70001H16.49" stroke-linecap="round" stroke-linejoin="round"/>
<path d="M7.91 11.05H10.67" stroke-linecap="round" stroke-linejoin="round"/>
<path d="M13.73 11.05H16.49" stroke-linecap="round" stroke-linejoin="round"/>
<path d="M7.91 13.39H10.67" stroke-linecap="round" stroke-linejoin="round"/>
<path d="M13.73 13.39H16.49" stroke-linecap="round" stroke-linejoin="round"/>
<path d="M13.96 21.23V16.82C13.96 16.58 13.76 16.38 13.52 16.38H10.87C10.63 16.38 10.43 16.58 10.43 16.82V21.23" stroke-linecap="round" stroke-linejoin="round"/>
<path d="M21.9 21.23H2.5" stroke-linecap="round" stroke-linejoin="round"/>
</svg>
