<svg fill="currentColor" stroke="currentColor" viewBox="0 0 24 24" fill="none" xmlns="http://www.w3.org/2000/svg">
<path d="M5.212 15.111L2.52501 12.424C2.41264 12.3115 2.34953 12.159 2.34953 12C2.34953 11.841 2.41264 11.6885 2.52501 11.576L5.212 8.88902C5.32451 8.77666 5.477 8.71355 5.63601 8.71355C5.79501 8.71355 5.9475 8.77666 6.06 8.88902L8.747 11.576C8.85936 11.6885 8.92248 11.841 8.92248 12C8.92248 12.159 8.85936 12.3115 8.747 12.424L6.06 15.111C5.9475 15.2234 5.79501 15.2865 5.63601 15.2865C5.477 15.2865 5.32451 15.2234 5.212 15.111ZM11.576 21.475L8.889 18.788C8.83322 18.7323 8.78896 18.6661 8.75877 18.5933C8.72857 18.5204 8.71303 18.4424 8.71303 18.3635C8.71303 18.2847 8.72857 18.2066 8.75877 18.1338C8.78896 18.0609 8.83322 17.9947 8.889 17.939L11.576 15.252C11.6885 15.1397 11.841 15.0765 12 15.0765C12.159 15.0765 12.3115 15.1397 12.424 15.252L15.111 17.939C15.1668 17.9947 15.211 18.0609 15.2412 18.1338C15.2714 18.2066 15.287 18.2847 15.287 18.3635C15.287 18.4424 15.2714 18.5204 15.2412 18.5933C15.211 18.6661 15.1668 18.7323 15.111 18.788L12.424 21.475C12.3115 21.5874 12.159 21.6505 12 21.6505C11.841 21.6505 11.6885 21.5874 11.576 21.475ZM11.576 8.74802L8.889 6.06002C8.77664 5.94752 8.71353 5.79502 8.71353 5.63602C8.71353 5.47702 8.77664 5.32452 8.889 5.21202L11.576 2.52502C11.6885 2.41266 11.841 2.34955 12 2.34955C12.159 2.34955 12.3115 2.41266 12.424 2.52502L15.111 5.21202C15.2234 5.32452 15.2865 5.47702 15.2865 5.63602C15.2865 5.79502 15.2234 5.94752 15.111 6.06002L12.424 8.74802C12.3115 8.86038 12.159 8.92349 12 8.92349C11.841 8.92349 11.6885 8.86038 11.576 8.74802ZM17.94 15.111L15.253 12.424C15.1406 12.3115 15.0775 12.159 15.0775 12C15.0775 11.841 15.1406 11.6885 15.253 11.576L17.94 8.88902C18.0525 8.77666 18.205 8.71355 18.364 8.71355C18.523 8.71355 18.6755 8.77666 18.788 8.88902L21.475 11.576C21.5874 11.6885 21.6505 11.841 21.6505 12C21.6505 12.159 21.5874 12.3115 21.475 12.424L18.788 15.111C18.6755 15.2234 18.523 15.2865 18.364 15.2865C18.205 15.2865 18.0525 15.2234 17.94 15.111Z" />
</svg>
