<svg fill="currentColor" stroke="currentColor" viewBox="0 0 24 24" fill="none" xmlns="http://www.w3.org/2000/svg">
<path d="M22.65 14.39L12 22.13L1.35001 14.39C1.20723 14.285 1.10133 14.1375 1.04744 13.9687C0.993557 13.7999 0.994455 13.6183 1.05001 13.45L2.27001 9.67L4.71001 2.16C4.73367 2.09881 4.77135 2.04401 4.82001 2C4.89925 1.92762 5.00269 1.88749 5.11001 1.88749C5.21733 1.88749 5.32077 1.92762 5.40001 2C5.45139 2.04966 5.48925 2.11162 5.51001 2.18L7.95001 9.67H16.05L18.49 2.16C18.5137 2.09881 18.5513 2.04401 18.6 2C18.6792 1.92762 18.7827 1.88749 18.89 1.88749C18.9973 1.88749 19.1008 1.92762 19.18 2C19.2314 2.04966 19.2693 2.11162 19.29 2.18L21.73 9.69L23 13.45C23.0505 13.6235 23.0438 13.8086 22.9807 13.978C22.9177 14.1473 22.8017 14.2918 22.65 14.39Z" stroke-linecap="round" stroke-linejoin="round"/>
</svg>
