<svg fill="currentColor" stroke="currentColor" viewBox="0 0 30 30" xmlns="http://www.w3.org/2000/svg">
<path d="M6.64863 16.875H6.46465C4.34407 16.875 2.625 18.5941 2.625 20.7146V26.1604C2.625 28.2809 4.34407 30 6.46465 30H6.64863C8.76921 30 10.4883 28.2809 10.4883 26.1604V20.7146C10.4883 18.5941 8.76921 16.875 6.64863 16.875Z" />
<path d="M23.5354 0H23.3514C21.2308 0 19.5117 1.71907 19.5117 3.83965V9.28535C19.5117 11.4059 21.2308 13.125 23.3514 13.125H23.5354C25.6559 13.125 27.375 11.4059 27.375 9.28535V3.83965C27.375 1.71907 25.6559 0 23.5354 0Z" />
<path d="M22.5 15C20.5109 15 18.6032 14.2098 17.1967 12.8033C15.7902 11.3968 15 9.48912 15 7.5C15 5.51088 14.2098 3.60322 12.8033 2.1967C11.3968 0.790176 9.48912 0 7.5 0C5.51088 0 3.60322 0.790176 2.1967 2.1967C0.790176 3.60322 0 5.51088 0 7.5C0 9.48912 0.790176 11.3968 2.1967 12.8033C3.60322 14.2098 5.51088 15 7.5 15C9.48912 15 11.3968 15.7902 12.8033 17.1967C14.2098 18.6032 15 20.5109 15 22.5C15 24.4891 15.7902 26.3968 17.1967 27.8033C18.6032 29.2098 20.5109 30 22.5 30C24.4891 30 26.3968 29.2098 27.8033 27.8033C29.2098 26.3968 30 24.4891 30 22.5C30 20.5109 29.2098 18.6032 27.8033 17.1967C26.3968 15.7902 24.4891 15 22.5 15Z" />
</svg>
