<svg fill="currentColor" stroke="currentColor" viewBox="0 0 24 24" fill="none" xmlns="http://www.w3.org/2000/svg">
<path d="M7.90909 21.1364C8.38607 21.1364 8.77273 20.7497 8.77273 20.2728C8.77273 19.7958 8.38607 19.4091 7.90909 19.4091C7.43212 19.4091 7.04546 19.7958 7.04546 20.2728C7.04546 20.7497 7.43212 21.1364 7.90909 21.1364Z" stroke-linecap="round" stroke-linejoin="round"/>
<path d="M17.4091 21.1364C17.8861 21.1364 18.2727 20.7497 18.2727 20.2728C18.2727 19.7958 17.8861 19.4091 17.4091 19.4091C16.9321 19.4091 16.5455 19.7958 16.5455 20.2728C16.5455 20.7497 16.9321 21.1364 17.4091 21.1364Z" stroke-linecap="round" stroke-linejoin="round"/>
<path d="M1 3H4.45455L6.76909 14.5641C6.84807 14.9617 7.06438 15.3189 7.38015 15.5731C7.69593 15.8273 8.09106 15.9623 8.49636 15.9545H16.8909C17.2962 15.9623 17.6913 15.8273 18.0071 15.5731C18.3229 15.3189 18.5392 14.9617 18.6182 14.5641L18.996 12.5828M5.31818 7.31818H13" stroke-linecap="round" stroke-linejoin="round"/>
<path d="M19 4V10" stroke-linecap="round" stroke-linejoin="round"/>
<path d="M16 7H22" stroke-linecap="round" stroke-linejoin="round"/>
</svg>
